<mxfile host="app.diagrams.net" modified="2023-04-02T16:33:20.312Z" agent="Mozilla/5.0 (Windows NT 10.0; Win64; x64) AppleWebKit/537.36 (KHTML, like Gecko) Chrome/111.0.0.0 Safari/537.36 Edg/111.0.1661.62" etag="Tb1fkORejguopQdwWWpt" version="21.1.2" type="device">
  <diagram name="Страница 1" id="A2EtQqYcHxRgKgm7Sccz">
    <mxGraphModel dx="792" dy="1138" grid="1" gridSize="10" guides="1" tooltips="1" connect="1" arrows="1" fold="1" page="1" pageScale="1" pageWidth="827" pageHeight="1169" math="0" shadow="0">
      <root>
        <mxCell id="0" />
        <mxCell id="1" parent="0" />
        <mxCell id="opWNSSf8qe8jD4JHYAr6-3" style="edgeStyle=orthogonalEdgeStyle;rounded=0;orthogonalLoop=1;jettySize=auto;html=1;" edge="1" parent="1" source="opWNSSf8qe8jD4JHYAr6-1" target="opWNSSf8qe8jD4JHYAr6-2">
          <mxGeometry relative="1" as="geometry" />
        </mxCell>
        <mxCell id="opWNSSf8qe8jD4JHYAr6-1" value="Начало&lt;br&gt;printAllTrains" style="ellipse;whiteSpace=wrap;html=1;" vertex="1" parent="1">
          <mxGeometry x="354" y="20" width="120" height="80" as="geometry" />
        </mxCell>
        <mxCell id="opWNSSf8qe8jD4JHYAr6-5" style="edgeStyle=orthogonalEdgeStyle;rounded=0;orthogonalLoop=1;jettySize=auto;html=1;" edge="1" parent="1" source="opWNSSf8qe8jD4JHYAr6-2" target="opWNSSf8qe8jD4JHYAr6-4">
          <mxGeometry relative="1" as="geometry" />
        </mxCell>
        <mxCell id="opWNSSf8qe8jD4JHYAr6-10" value="TRUE" style="edgeStyle=orthogonalEdgeStyle;rounded=0;orthogonalLoop=1;jettySize=auto;html=1;" edge="1" parent="1" source="opWNSSf8qe8jD4JHYAr6-2">
          <mxGeometry relative="1" as="geometry">
            <mxPoint x="414" y="400" as="targetPoint" />
            <Array as="points">
              <mxPoint x="250" y="160" />
              <mxPoint x="250" y="400" />
            </Array>
          </mxGeometry>
        </mxCell>
        <mxCell id="opWNSSf8qe8jD4JHYAr6-2" value="!trainList" style="rhombus;whiteSpace=wrap;html=1;" vertex="1" parent="1">
          <mxGeometry x="374" y="120" width="80" height="80" as="geometry" />
        </mxCell>
        <mxCell id="opWNSSf8qe8jD4JHYAr6-7" style="edgeStyle=orthogonalEdgeStyle;rounded=0;orthogonalLoop=1;jettySize=auto;html=1;entryX=0.5;entryY=0;entryDx=0;entryDy=0;" edge="1" parent="1" source="opWNSSf8qe8jD4JHYAr6-4" target="opWNSSf8qe8jD4JHYAr6-6">
          <mxGeometry relative="1" as="geometry" />
        </mxCell>
        <mxCell id="opWNSSf8qe8jD4JHYAr6-4" value="&lt;div style=&quot;font-size: 14px; line-height: 19px;&quot;&gt;&lt;span style=&quot;background-color: rgb(255, 255, 255);&quot;&gt;printTrain(trainList-&amp;gt;train)&lt;/span&gt;&lt;/div&gt;" style="rounded=0;whiteSpace=wrap;html=1;" vertex="1" parent="1">
          <mxGeometry x="334" y="220" width="160" height="60" as="geometry" />
        </mxCell>
        <mxCell id="opWNSSf8qe8jD4JHYAr6-9" style="edgeStyle=orthogonalEdgeStyle;rounded=0;orthogonalLoop=1;jettySize=auto;html=1;" edge="1" parent="1" source="opWNSSf8qe8jD4JHYAr6-6" target="opWNSSf8qe8jD4JHYAr6-8">
          <mxGeometry relative="1" as="geometry" />
        </mxCell>
        <mxCell id="opWNSSf8qe8jD4JHYAr6-6" value="&lt;div style=&quot;font-size: 14px; line-height: 19px;&quot;&gt;&lt;span style=&quot;background-color: rgb(255, 255, 255);&quot;&gt;printAllTrains(trainList-&amp;gt;next)&lt;/span&gt;&lt;/div&gt;" style="rounded=0;whiteSpace=wrap;html=1;" vertex="1" parent="1">
          <mxGeometry x="319" y="300" width="190" height="60" as="geometry" />
        </mxCell>
        <mxCell id="opWNSSf8qe8jD4JHYAr6-8" value="Конец" style="ellipse;whiteSpace=wrap;html=1;" vertex="1" parent="1">
          <mxGeometry x="354" y="440" width="120" height="80" as="geometry" />
        </mxCell>
      </root>
    </mxGraphModel>
  </diagram>
</mxfile>
